<svg xmlns="http://www.w3.org/2000/svg" xmlns:xlink="http://www.w3.org/1999/xlink" width="41" height="32" viewBox="0 0 41 32"><defs><clipPath id="a"><rect width="38.342" height="25.439" transform="translate(0 0)" fill="none"/></clipPath></defs><g transform="translate(-188 -2984)"><g transform="translate(189 2987)"><g clip-path="url(#a)"><path d="M11.1,24.767a.664.664,0,0,0,.664.673l14.692,0a.665.665,0,0,0,.663-.642,13.938,13.938,0,0,0-.17-2.32l10.727,0a.661.661,0,0,0,.662-.641c.008-.228.146-5.609-3.228-8.7a.664.664,0,0,0-.853-.037c-.039.03-3.963,2.977-7.614,0a.665.665,0,0,0-.855.014,9.924,9.924,0,0,0-2.082,2.867.662.662,0,0,0-.667.08c-.162.122-3.983,2.963-7.618,0a.659.659,0,0,0-.618-.116,8.859,8.859,0,0,0-2.015-2.815.663.663,0,0,0-.852-.037c-.04.03-3.963,2.977-7.615,0a.665.665,0,0,0-.855.014A12.009,12.009,0,0,0,0,21.8a.664.664,0,0,0,.664.673l10.66,0a14.186,14.186,0,0,0-.223,2.294M26.292,14.495c3.472,2.422,7.014.739,8.285-.026C36.55,16.588,36.929,19.79,37,21.146H26.685a10.757,10.757,0,0,0-1.973-4.171,10.214,10.214,0,0,1,1.58-2.481M15.072,17.46c3.471,2.421,7.013.739,8.284-.026,1.974,2.119,2.352,5.321,2.423,6.676l-13.324,0a11.174,11.174,0,0,1,2.617-6.652M1.354,21.148A11.169,11.169,0,0,1,3.97,14.495c3.472,2.422,7.015.739,8.285-.026a8.057,8.057,0,0,1,1.523,2.461,11.975,11.975,0,0,0-2.151,4.216Z" fill="#272525"/><path d="M1.728,6.284A6.289,6.289,0,0,0,8.01,12.563h0a6.234,6.234,0,0,0,4.439-1.842,6.538,6.538,0,0,0,.459-.516,6.288,6.288,0,0,0,6.2,5.323h0a6.278,6.278,0,0,0,6.22-5.458,6.271,6.271,0,0,0,5,2.493h0A6.281,6.281,0,1,0,30.331,0,6.278,6.278,0,0,0,24.11,5.459a6.265,6.265,0,0,0-9.441-.651,6.583,6.583,0,0,0-.459.516,6.278,6.278,0,0,0-12.482.96m25.1-3.5a4.952,4.952,0,1,1,3.505,8.455h0a4.952,4.952,0,0,1-3.5-8.455M15.609,5.746a4.951,4.951,0,1,1,3.5,8.455h0a4.951,4.951,0,0,1-3.5-8.455M8.01,1.327a4.955,4.955,0,0,1,0,9.909h0a4.955,4.955,0,0,1,0-9.909" fill="#272525"/></g></g><rect width="41" height="32" transform="translate(188 2984)" fill="none"/></g></svg>